<svg id="Layer_1" data-name="Layer 1" xmlns="http://www.w3.org/2000/svg" viewBox="0 0 312 56"><defs><style>.cls-1{fill:#a6adb6;}.cls-2{fill:#282b3a;}.cls-3{fill:#fff;}.cls-4{fill:#f37326;}.cls-5{fill:#f15a24;}.cls-6{fill:#f48c29;}.cls-7{fill:#f6a52b;}</style></defs><title>unknown</title><path class="cls-1" d="M156,0H312a0,0,0,0,1,0,0V56a0,0,0,0,1,0,0H156a6,6,0,0,1-6-6V6a6,6,0,0,1,6-6Z" transform="translate(462 56) rotate(-180)"/><path class="cls-2" d="M6,0H150a0,0,0,0,1,0,0V56a0,0,0,0,1,0,0H6a6,6,0,0,1-6-6V6A6,6,0,0,1,6,0Z"/><path class="cls-3" d="M75.92,24.34a8.52,8.52,0,0,1,2,5.84,8.71,8.71,0,0,1-2.06,6,6.39,6.39,0,0,1-5,2.26,4.72,4.72,0,0,1-2.61-.77,5,5,0,0,1-1.89-2.34L65.4,38H63V16.18H66.7v8.28a4.81,4.81,0,0,1,4.36-2.34A6.2,6.2,0,0,1,75.92,24.34ZM66.7,29.29v2A3.68,3.68,0,0,0,67.87,34a3.53,3.53,0,0,0,2.56,1A3.24,3.24,0,0,0,73,33.68a5.28,5.28,0,0,0,1.08-3.47A5.25,5.25,0,0,0,73,26.76a3.32,3.32,0,0,0-2.65-1.28,3.54,3.54,0,0,0-2.63,1.05A3.7,3.7,0,0,0,66.7,29.29Z"/><path class="cls-3" d="M92.69,35.16A4.89,4.89,0,0,1,88,38.24c-2.73,0-4.52-1.07-5.39-3.21a6.79,6.79,0,0,1-.48-2.7V22.5h3.75V32a3.1,3.1,0,0,0,.73,2.27,2.39,2.39,0,0,0,1.79.75,4.68,4.68,0,0,0,1.79-.3,3.35,3.35,0,0,0,1.27-.91,5.59,5.59,0,0,0,1.24-3.65V22.5h3.75V38H92.69Z"/><path class="cls-3" d="M102.21,17.54a2.11,2.11,0,0,1,.61-1.6,2.35,2.35,0,0,1,1.71-.59,2.39,2.39,0,0,1,1.7.59,2.12,2.12,0,0,1,.62,1.6,2.12,2.12,0,0,1-.62,1.61,2.39,2.39,0,0,1-1.7.58,2.35,2.35,0,0,1-1.71-.58A2.12,2.12,0,0,1,102.21,17.54Zm.45,5h3.74V38h-3.74Z"/><path class="cls-3" d="M112.75,16.18h3.74V38h-3.74Z"/><path class="cls-3" d="M132.46,35.57a4.63,4.63,0,0,1-4.38,2.83,6.33,6.33,0,0,1-5-2.26,8.67,8.67,0,0,1-2.07-6,8.64,8.64,0,0,1,2-5.88,6.17,6.17,0,0,1,4.83-2.18,4.8,4.8,0,0,1,4.34,2.31V16.18H136V38H132.9Zm-3.91-10.09a3.33,3.33,0,0,0-2.65,1.28,5.25,5.25,0,0,0-1.06,3.45,5.28,5.28,0,0,0,1.08,3.47,3.39,3.39,0,0,0,5.17.24,3.78,3.78,0,0,0,1.11-2.79v-2a3.87,3.87,0,0,0-1.11-2.7A3.44,3.44,0,0,0,128.55,25.48Z"/><path class="cls-3" d="M174.2,35.16a4.88,4.88,0,0,1-4.69,3.08q-4.09,0-5.4-3.21a6.8,6.8,0,0,1-.47-2.7V22.5h3.74V32a3.1,3.1,0,0,0,.73,2.27,2.4,2.4,0,0,0,1.79.75,4.77,4.77,0,0,0,1.8-.3,3.43,3.43,0,0,0,1.27-.91,5.64,5.64,0,0,0,1.23-3.65V22.5H178V38H174.2Z"/><path class="cls-3" d="M187.53,25.19a5.61,5.61,0,0,1,9.19-1.2,7.85,7.85,0,0,1,1.45,5v9h-3.75v-9a3.64,3.64,0,0,0-.82-2.59,3.05,3.05,0,0,0-2.32-.87,3.17,3.17,0,0,0-2.56,1.33,6.64,6.64,0,0,0-1.12,4V38h-3.75V22.53h3.27Z"/><path class="cls-3" d="M209.08,30.43l-1.71,1.43V38h-3.75V16.18h3.75V28l6.09-5.43h5.08l-6.82,5.71,7.2,9.71h-4.57Z"/><path class="cls-3" d="M225.56,25.19a5.61,5.61,0,0,1,9.18-1.2,7.85,7.85,0,0,1,1.45,5v9h-3.75v-9a3.64,3.64,0,0,0-.82-2.59,3.05,3.05,0,0,0-2.32-.87,3.16,3.16,0,0,0-2.55,1.33,6.57,6.57,0,0,0-1.13,4V38h-3.75V22.53h3.27Z"/><path class="cls-3" d="M247.71,22.12a8.53,8.53,0,0,1,2.92.49,6.23,6.23,0,0,1,2.35,1.5,8.42,8.42,0,0,1,2.19,6.16,8.33,8.33,0,0,1-2.19,6.1,7,7,0,0,1-5.27,2,7.21,7.21,0,0,1-5.33-2,8.26,8.26,0,0,1-2.19-6.1,8.34,8.34,0,0,1,2.19-6.16A7.21,7.21,0,0,1,247.71,22.12Zm3.71,8.12a6,6,0,0,0-.95-3.67,3.19,3.19,0,0,0-2.65-1.22A3.56,3.56,0,0,0,245,26.57,5.42,5.42,0,0,0,244,30.24a5.89,5.89,0,0,0,1,3.67,3.22,3.22,0,0,0,2.65,1.22,3.53,3.53,0,0,0,2.76-1.22A5.42,5.42,0,0,0,251.42,30.24Z"/><path class="cls-3" d="M261,22.53l3.11,11,3-10.16h3.39l2.95,10.19,3.15-11h3.74L275.19,38h-3.68l-2.85-9.23L265.86,38h-3.71L257,22.53Z"/><path class="cls-3" d="M287.35,25.19a5.61,5.61,0,0,1,9.19-1.2,7.91,7.91,0,0,1,1.44,5v9h-3.74v-9a3.65,3.65,0,0,0-.83-2.59,3,3,0,0,0-2.32-.87,3.17,3.17,0,0,0-2.55,1.33,6.57,6.57,0,0,0-1.13,4V38h-3.74V22.53h3.27Z"/><path class="cls-4" d="M17.46,16.28l-2.34,1.31A2.2,2.2,0,0,0,14,19.5v17a2.2,2.2,0,0,0,1.12,1.91l2.34,1.31L29.18,28Z"/><path class="cls-5" d="M32.57,9a2.2,2.2,0,0,0-2.14,0l-10,5.59L31.5,25.68,42.56,14.62Z"/><path class="cls-6" d="M47.88,17.59l-2.34-1.31L33.82,28,45.54,39.72l2.34-1.31A2.2,2.2,0,0,0,49,36.5v-17A2.2,2.2,0,0,0,47.88,17.59Z"/><path class="cls-7" d="M31.5,30.32,20.44,41.38l10,5.59a2.2,2.2,0,0,0,2.14,0l10-5.59Z"/></svg>