<svg id="Layer_1" data-name="Layer 1" xmlns="http://www.w3.org/2000/svg" viewBox="0 0 299 56"><defs><style>.cls-1{fill:#ee9d66;}.cls-2{fill:#282b3a;}.cls-3{fill:#fff;}.cls-4{fill:#f37326;}.cls-5{fill:#f15a24;}.cls-6{fill:#f48c29;}.cls-7{fill:#f6a52b;}</style></defs><title>warning</title><path class="cls-1" d="M156,0H299a0,0,0,0,1,0,0V56a0,0,0,0,1,0,0H156a6,6,0,0,1-6-6V6a6,6,0,0,1,6-6Z" transform="translate(449 56) rotate(-180)"/><path class="cls-2" d="M6,0H150a0,0,0,0,1,0,0V56a0,0,0,0,1,0,0H6a6,6,0,0,1-6-6V6A6,6,0,0,1,6,0Z"/><path class="cls-3" d="M75.92,24.34a8.52,8.52,0,0,1,2,5.84,8.71,8.71,0,0,1-2.06,6,6.39,6.39,0,0,1-5,2.26,4.72,4.72,0,0,1-2.61-.77,5,5,0,0,1-1.89-2.34L65.4,38H63V16.18H66.7v8.28a4.81,4.81,0,0,1,4.36-2.34A6.2,6.2,0,0,1,75.92,24.34ZM66.7,29.29v2A3.68,3.68,0,0,0,67.87,34a3.53,3.53,0,0,0,2.56,1A3.24,3.24,0,0,0,73,33.68a5.28,5.28,0,0,0,1.08-3.47A5.25,5.25,0,0,0,73,26.76a3.32,3.32,0,0,0-2.65-1.28,3.54,3.54,0,0,0-2.63,1.05A3.7,3.7,0,0,0,66.7,29.29Z"/><path class="cls-3" d="M92.69,35.16A4.89,4.89,0,0,1,88,38.24c-2.73,0-4.52-1.07-5.39-3.21a6.79,6.79,0,0,1-.48-2.7V22.5h3.75V32a3.1,3.1,0,0,0,.73,2.27,2.39,2.39,0,0,0,1.79.75,4.68,4.68,0,0,0,1.79-.3,3.35,3.35,0,0,0,1.27-.91,5.59,5.59,0,0,0,1.24-3.65V22.5h3.75V38H92.69Z"/><path class="cls-3" d="M102.21,17.54a2.11,2.11,0,0,1,.61-1.6,2.35,2.35,0,0,1,1.71-.59,2.39,2.39,0,0,1,1.7.59,2.12,2.12,0,0,1,.62,1.6,2.12,2.12,0,0,1-.62,1.61,2.39,2.39,0,0,1-1.7.58,2.35,2.35,0,0,1-1.71-.58A2.12,2.12,0,0,1,102.21,17.54Zm.45,5h3.74V38h-3.74Z"/><path class="cls-3" d="M112.75,16.18h3.74V38h-3.74Z"/><path class="cls-3" d="M132.46,35.57a4.63,4.63,0,0,1-4.38,2.83,6.33,6.33,0,0,1-5-2.26,8.67,8.67,0,0,1-2.07-6,8.64,8.64,0,0,1,2-5.88,6.17,6.17,0,0,1,4.83-2.18,4.8,4.8,0,0,1,4.34,2.31V16.18H136V38H132.9Zm-3.91-10.09a3.33,3.33,0,0,0-2.65,1.28,5.25,5.25,0,0,0-1.06,3.45,5.28,5.28,0,0,0,1.08,3.47,3.39,3.39,0,0,0,5.17.24,3.78,3.78,0,0,0,1.11-2.79v-2a3.87,3.87,0,0,0-1.11-2.7A3.44,3.44,0,0,0,128.55,25.48Z"/><path class="cls-3" d="M165.32,22.53l3.11,11,2.95-10.16h3.4l2.95,10.19,3.14-11h3.74L179.54,38h-3.69L173,28.72,170.21,38h-3.72l-5.11-15.42Z"/><path class="cls-3" d="M193.09,28.94a17.94,17.94,0,0,1,4.25.6V28a3.72,3.72,0,0,0-.65-2.4,2.62,2.62,0,0,0-2.13-.78,3.79,3.79,0,0,0-2.27.59,2,2,0,0,0-.79,1.67h-4.09a4.17,4.17,0,0,1,1.85-3.81,9.73,9.73,0,0,1,5.19-1.17q4.77,0,6.16,3.33a6.91,6.91,0,0,1,.48,2.69V38h-3.27l-.29-2.06A5,5,0,0,1,193,38.4a6.76,6.76,0,0,1-4.63-1.46,4.58,4.58,0,0,1-1.53-3.54,3.75,3.75,0,0,1,1.69-3.3A7.93,7.93,0,0,1,193.09,28.94Zm4.25,3a13.33,13.33,0,0,0-3.49-.51c-2,0-3,.68-3,2a1.92,1.92,0,0,0,.7,1.47,3.35,3.35,0,0,0,2.24.62,3.39,3.39,0,0,0,2.54-1A3.83,3.83,0,0,0,197.34,31.92Z"/><path class="cls-3" d="M210.29,25.57q1.4-3.33,4.19-3.33a5.81,5.81,0,0,1,1.36.22l-.06,3.75A8.06,8.06,0,0,0,214,26q-3.75,0-3.75,5.17V38h-3.75V22.5h3.75Z"/><path class="cls-3" d="M223.43,25.19a5.61,5.61,0,0,1,9.19-1.2,7.91,7.91,0,0,1,1.44,5v9h-3.74v-9a3.65,3.65,0,0,0-.83-2.59,3,3,0,0,0-2.32-.87,3.17,3.17,0,0,0-2.55,1.33,6.57,6.57,0,0,0-1.13,4V38h-3.74V22.53H223Z"/><path class="cls-3" d="M239.39,17.54a2.11,2.11,0,0,1,.61-1.6,2.35,2.35,0,0,1,1.71-.59,2.39,2.39,0,0,1,1.7.59,2.12,2.12,0,0,1,.62,1.6,2.12,2.12,0,0,1-.62,1.61,2.39,2.39,0,0,1-1.7.58,2.35,2.35,0,0,1-1.71-.58A2.12,2.12,0,0,1,239.39,17.54Zm.45,5h3.74V38h-3.74Z"/><path class="cls-3" d="M253.61,25.19A5.61,5.61,0,0,1,262.8,24a7.91,7.91,0,0,1,1.44,5v9H260.5v-9a3.65,3.65,0,0,0-.83-2.59,3,3,0,0,0-2.31-.87,3.17,3.17,0,0,0-2.56,1.33,6.64,6.64,0,0,0-1.13,4V38h-3.74V22.53h3.27Z"/><path class="cls-3" d="M271,31.64a5,5,0,0,1-1.87-4,4.93,4.93,0,0,1,2-4.06,6.84,6.84,0,0,1,4.36-1.49,8.28,8.28,0,0,1,4.11.92,4.19,4.19,0,0,1,1.56-2.92A4.77,4.77,0,0,1,284.3,19l-.19,3.59c-1.82,0-2.76.6-2.82,1.81a4.74,4.74,0,0,1,1.17,3,5.48,5.48,0,0,1-.54,2.56,5.19,5.19,0,0,1-1.46,1.73,7.2,7.2,0,0,1-4.63,1.52,8,8,0,0,1-2.83-.48,1.54,1.54,0,0,0-1.27,1.53c0,.95.81,1.43,2.42,1.43h5.17c3.51,0,5.27,1.22,5.27,3.68a5.28,5.28,0,0,1-.62,2.43,6.49,6.49,0,0,1-1.8,2.11,10.3,10.3,0,0,1-6.53,2,11.09,11.09,0,0,1-6.19-1.56,4.33,4.33,0,0,1-2.22-3.65,3,3,0,0,1,.87-2.27,4.14,4.14,0,0,1,2.3-1.06,3.29,3.29,0,0,1-1.87-2.82,2.61,2.61,0,0,1,.7-1.86A3.78,3.78,0,0,1,271,31.64Zm2.86,6.66c-2,.09-3,.84-3,2.25a2,2,0,0,0,1.25,1.73,6.32,6.32,0,0,0,3,.66,9.85,9.85,0,0,0,2.68-.29,5.41,5.41,0,0,0,1.64-.76,2.74,2.74,0,0,0,1.42-2.29,1.21,1.21,0,0,0-.39-.93,1.63,1.63,0,0,0-1.16-.37Zm4.86-10.68a3,3,0,0,0-.72-2.09,2.74,2.74,0,0,0-2.17-.81,2.72,2.72,0,0,0-3,2.9,3,3,0,0,0,.76,2.11,2.88,2.88,0,0,0,2.22.83,2.71,2.71,0,0,0,2.17-.83A3.09,3.09,0,0,0,278.75,27.62Z"/><path class="cls-4" d="M17.46,16.28l-2.34,1.31A2.2,2.2,0,0,0,14,19.5v17a2.2,2.2,0,0,0,1.12,1.91l2.34,1.31L29.18,28Z"/><path class="cls-5" d="M32.57,9a2.2,2.2,0,0,0-2.14,0l-10,5.59L31.5,25.68,42.56,14.62Z"/><path class="cls-6" d="M47.88,17.59l-2.34-1.31L33.82,28,45.54,39.72l2.34-1.31A2.2,2.2,0,0,0,49,36.5v-17A2.2,2.2,0,0,0,47.88,17.59Z"/><path class="cls-7" d="M31.5,30.32,20.44,41.38l10,5.59a2.2,2.2,0,0,0,2.14,0l10-5.59Z"/></svg>