<?xml version="1.0" encoding="UTF-8"?>
<!-- Generator: Adobe Illustrator 22.1.0, SVG Export Plug-In . SVG Version: 6.00 Build 0)  -->
<svg version="1.1" id="Layer_1" xmlns="http://www.w3.org/2000/svg" xmlns:xlink="http://www.w3.org/1999/xlink" x="0px" y="0px" viewBox="0 0 48 48" style="enable-background:new 0 0 48 48;" xml:space="preserve">
<style type="text/css">
	.st0{fill:#282B3A;}
	.st1{fill:#F37326;}
	.st2{fill:#F15A24;}
	.st3{fill:#F48C29;}
	.st4{fill:#F6A52B;}
</style>
<g>
	<path class="st0" d="M43.1,11.1L25.9,1.5c-1.2-0.6-2.6-0.6-3.7,0L4.9,11.1c-1.2,0.7-2,2-2,3.3v19.1c0,1.4,0.8,2.7,2,3.3l17.2,9.6   c1.2,0.6,2.6,0.6,3.7,0l17.2-9.6c1.2-0.7,2-2,2-3.3V14.5C45.1,13.1,44.3,11.8,43.1,11.1z"/>
	<path class="st1" d="M11.7,13.7l-2,1.1c-0.6,0.3-1,1-1,1.7v14.9c0,0.7,0.4,1.3,1,1.7l2,1.1L22,24L11.7,13.7z"/>
	<path class="st2" d="M24.9,7.4c-0.6-0.3-1.3-0.3-1.9,0l-8.8,4.9L24,22l9.7-9.7L24.9,7.4z"/>
	<path class="st3" d="M38.3,14.9l-2-1.1L26,24l10.3,10.3l2-1.1c0.6-0.3,1-1,1-1.7V16.6C39.3,15.9,38.9,15.2,38.3,14.9z"/>
	<path class="st4" d="M24,26l-9.7,9.7l8.8,4.9c0.6,0.3,1.3,0.3,1.9,0l8.8-4.9L24,26z"/>
</g>
</svg>