<?xml version="1.0" encoding="UTF-8"?>
<!-- Generator: Adobe Illustrator 25.1.0, SVG Export Plug-In . SVG Version: 6.00 Build 0)  -->
<svg version="1.1" xmlns="http://www.w3.org/2000/svg" xmlns:xlink="http://www.w3.org/1999/xlink" x="0px" y="0px" viewBox="0 0 125 125" style="enable-background:new 0 0 125 125;" xml:space="preserve">
<style type="text/css">
	.st0{display:none;}
	.st1{display:inline;}
	.st2{fill:#152C53;}
	.st3{fill:#025291;}
	.st4{fill:#194073;}
	.st5{fill:#FFFFFF;}
</style>
<g id="Layer_1" class="st0">
	<g class="st1">
		<path class="st2" d="M79.55,34.55c-1.36,0-3.41-2.39-3.41-3.75V4.55h-52.5c-3.07,0-6.14,1.7-6.14,4.77V113.3    c0,3.07,3.07,7.16,6.48,7.16h78.41c4.77,0,5.11-4.09,5.11-7.16V34.55H79.55z M103.07,113.3c0,1.36-0.34,3.41-2.05,3.41H23.64    c-1.36,0-2.73-2.05-2.73-3.41V9.32c0-1.36,1.36-1.36,2.73-1.36h48.75v23.52c0,3.07,3.07,6.48,6.14,6.48h24.55V113.3L103.07,113.3z    "/>
		<polygon class="st2" points="76.14,4.55 107.5,34.55 105.45,36.93 73.41,6.25   "/>
		<g>
			<rect x="27.39" y="17.5" class="st2" width="39.55" height="2.73"/>
		</g>
		<g>
			<rect x="27.39" y="29.77" class="st2" width="39.55" height="2.73"/>
		</g>
		<g>
			<rect x="27.39" y="42.39" class="st2" width="69.55" height="2.73"/>
		</g>
		<g>
			<rect x="27.39" y="54.66" class="st2" width="69.55" height="2.73"/>
		</g>
		<g>
			<rect x="27.39" y="66.93" class="st2" width="69.55" height="2.73"/>
		</g>
		<g>
			<rect x="27.39" y="79.55" class="st2" width="69.55" height="2.73"/>
		</g>
		<g>
			<rect x="27.39" y="91.82" class="st2" width="69.55" height="2.73"/>
		</g>
		<g>
			<rect x="27.39" y="104.09" class="st2" width="69.55" height="2.73"/>
		</g>
	</g>
</g>
<g id="Layer_2">
	<g>
		<g>
			<path class="st3" d="M87.5,52.22v61.44c0,2.58-2.09,4.67-4.67,4.67H22.17c-2.58,0-4.67-2.09-4.67-4.67v-84     c0-2.58,2.09-4.67,4.67-4.67h38.11"/>
		</g>
		<g>
			<path class="st4" d="M97.5,42.22v61.44c0,2.58-2.09,4.67-4.67,4.67H32.17c-2.58,0-4.67-2.09-4.67-4.67v-84     c0-2.58,2.09-4.67,4.67-4.67h38.11"/>
		</g>
		<g>
			<path class="st2" d="M107.5,32.22v61.44c0,2.58-2.09,4.67-4.67,4.67H42.17c-2.58,0-4.67-2.09-4.67-4.67v-84     C37.5,7.09,39.59,5,42.17,5h38.11"/>
		</g>
	</g>
	<g>
		<g>
			<rect x="45.28" y="38.06" class="st5" width="54.44" height="7.78"/>
		</g>
		<g>
			<rect x="45.28" y="57.5" class="st5" width="54.44" height="7.78"/>
		</g>
		<g>
			<rect x="45.28" y="76.94" class="st5" width="54.44" height="7.78"/>
		</g>
	</g>
	<path class="st3" d="M107.5,32.22H85.72c-3.01,0-5.44-2.44-5.44-5.44V5"/>
</g>
</svg>