<svg width="50" height="50" viewBox="0 0 50 50" fill="none" xmlns="http://www.w3.org/2000/svg">
<path d="M46.8812 13.1615L31.2562 4.43229C30.9229 4.24479 30.5687 4.14062 30.1937 4.07812C29.777 3.97396 29.3395 3.97396 28.902 4.07812C28.2979 4.22396 27.7354 4.59896 27.3604 5.20312L17.5479 23.5781C17.1104 24.349 17.1104 25.3073 17.5479 26.099L27.3812 44.474C27.7562 45.0781 28.3187 45.4531 28.9229 45.599C29.3395 45.7031 29.777 45.7031 30.2145 45.599C30.5687 45.5365 30.9437 45.4323 31.277 45.2448L46.902 36.5156C48.0062 35.9115 48.6728 34.7448 48.6728 33.4948V16.2031C48.652 14.9323 47.9854 13.7865 46.8812 13.1615Z" fill="#194073"/>
<path d="M7.29801 22.9531L13.0897 12.1406L11.1105 11.0365C10.8813 10.9115 10.6313 10.8281 10.4022 10.7865C10.1105 10.724 9.81885 10.724 9.52718 10.7865C9.11051 10.8906 8.73551 11.1406 8.48551 11.5573L1.81885 23.974C1.52718 24.4948 1.52718 25.1406 1.81885 25.6823L8.48551 38.099C8.73551 38.5156 9.11051 38.7656 9.52718 38.8698C9.81885 38.9323 10.1105 38.9323 10.4022 38.8698C10.6522 38.8281 10.8813 38.7448 11.1105 38.6198L13.0897 37.5156L7.27718 26.6823C6.65218 25.5365 6.65218 24.1198 7.29801 22.9531Z" fill="#01528F"/>
<path d="M16.0272 22.724L22.9022 9.89062L19.9647 8.24479C19.6938 8.09896 19.4022 8.01562 19.1105 7.95312C18.7772 7.86979 18.4022 7.86979 18.0688 7.95312C17.5688 8.07812 17.1105 8.39063 16.8188 8.86979L8.81885 23.8073C8.46468 24.4323 8.46468 25.224 8.81885 25.849L16.8188 40.7865C17.1313 41.2656 17.5897 41.5781 18.0688 41.7031C18.4022 41.7865 18.7772 41.7865 19.1105 41.7031C19.4022 41.6406 19.6938 41.5573 19.9647 41.4115L22.9022 39.7656L16.0272 26.9115C15.298 25.6406 15.298 24.0156 16.0272 22.724Z" fill="#194173"/>
<path d="M46.8812 13.1615L31.2562 4.43229C30.9229 4.24479 30.5687 4.14062 30.1937 4.07812C29.777 3.97396 29.3395 3.97396 28.902 4.07812C28.2979 4.22396 27.7354 4.59896 27.3604 5.20312L17.5479 23.5781C17.1104 24.349 17.1104 25.3073 17.5479 26.099L27.3812 44.474C27.7562 45.0781 28.3187 45.4531 28.9229 45.599C29.3395 45.7031 29.777 45.7031 30.2145 45.599C30.5687 45.5365 30.9437 45.4323 31.277 45.2448L46.902 36.5156C48.0062 35.9115 48.6728 34.7448 48.6728 33.4948V16.2031C48.652 14.9323 47.9854 13.7865 46.8812 13.1615Z" fill="#162C53"/>
</svg>
