<?xml version="1.0" encoding="utf-8"?>
<!-- Generator: Adobe Illustrator 25.1.0, SVG Export Plug-In . SVG Version: 6.00 Build 0)  -->
<svg version="1.1" id="Layer_1" xmlns="http://www.w3.org/2000/svg" xmlns:xlink="http://www.w3.org/1999/xlink" x="0px" y="0px"
	 viewBox="0 0 125 125" style="enable-background:new 0 0 125 125;" xml:space="preserve">
<style type="text/css">
	.st0{fill:#282B3A;}
	.st1{fill:#152C53;}
	.st2{fill:#194073;}
	.st3{fill:#025291;}
	.st4{fill:#FFFFFF;}
</style>
<g>
	<rect x="38.66" class="st0" width="86.34" height="62.5"/>
	<rect x="25.77" y="20.83" class="st1" width="86.34" height="62.5"/>
	<rect x="12.89" y="41.67" class="st2" width="86.34" height="62.5"/>
	<rect y="62.5" class="st3" width="86.34" height="62.5"/>
	<g>
		<path class="st4" d="M28.83,98.41c0,1.89-0.68,3.38-2.04,4.46c-1.36,1.09-3.25,1.63-5.67,1.63c-2.23,0-4.21-0.42-5.92-1.26v-4.12
			c1.41,0.63,2.61,1.07,3.58,1.33c0.98,0.26,1.87,0.39,2.68,0.39c0.97,0,1.72-0.19,2.24-0.56s0.78-0.93,0.78-1.66
			c0-0.41-0.11-0.78-0.34-1.09c-0.23-0.32-0.57-0.63-1.01-0.92s-1.35-0.77-2.71-1.42c-1.28-0.6-2.24-1.18-2.88-1.73
			c-0.64-0.55-1.15-1.2-1.53-1.93s-0.57-1.59-0.57-2.58c0-1.85,0.63-3.31,1.88-4.36S20.31,83,22.52,83c1.09,0,2.12,0.13,3.11,0.39
			c0.99,0.26,2.02,0.62,3.1,1.09l-1.43,3.45c-1.12-0.46-2.04-0.78-2.77-0.96c-0.73-0.18-1.45-0.27-2.15-0.27
			c-0.84,0-1.48,0.2-1.93,0.59c-0.45,0.39-0.67,0.9-0.67,1.53c0,0.39,0.09,0.73,0.27,1.02c0.18,0.29,0.47,0.57,0.87,0.84
			s1.33,0.76,2.81,1.47c1.96,0.93,3.3,1.87,4.02,2.81C28.47,95.89,28.83,97.04,28.83,98.41z"/>
		<path class="st4" d="M49.98,93.56c0,3.44-0.98,6.08-2.94,7.91c-1.96,1.83-4.79,2.75-8.49,2.75h-5.92V83.3h6.57
			c3.42,0,6.07,0.9,7.96,2.7C49.04,87.8,49.98,90.32,49.98,93.56z M45.37,93.67c0-4.49-1.98-6.74-5.95-6.74h-2.36v13.62h1.9
			C43.24,100.55,45.37,98.26,45.37,93.67z"/>
		<path class="st4" d="M71.14,104.22h-5.04l-5.48-8.81l-1.87,1.35v7.47h-4.44V83.3h4.44v9.57l1.75-2.46l5.67-7.11h4.92l-7.3,9.26
			L71.14,104.22z"/>
	</g>
</g>
</svg>
