<?xml version="1.0" encoding="UTF-8"?>
<!-- Generator: Adobe Illustrator 25.1.0, SVG Export Plug-In . SVG Version: 6.00 Build 0)  -->
<svg version="1.1" id="Layer_1" xmlns="http://www.w3.org/2000/svg" xmlns:xlink="http://www.w3.org/1999/xlink" x="0px" y="0px" viewBox="0 0 24 24" style="enable-background:new 0 0 24 24;" xml:space="preserve">
<style type="text/css">
	.st0{fill:#194073;}
	.st1{fill:#01528F;}
	.st2{fill:#194173;}
	.st3{fill:#162C53;}
</style>
<g>
	<path class="st0" d="M22.44,6.4l-7.5-4.19c-0.16-0.09-0.33-0.14-0.51-0.17c-0.2-0.05-0.41-0.05-0.62,0   c-0.29,0.07-0.56,0.25-0.74,0.54L8.36,11.4c-0.21,0.37-0.21,0.83,0,1.21l4.72,8.82c0.18,0.29,0.45,0.47,0.74,0.54   c0.2,0.05,0.41,0.05,0.62,0c0.17-0.03,0.35-0.08,0.51-0.17l7.5-4.19c0.53-0.29,0.85-0.85,0.85-1.45V7.86   C23.29,7.25,22.97,6.7,22.44,6.4z"/>
	<path class="st1" d="M3.44,11.1l2.78-5.19L5.27,5.38C5.16,5.32,5.04,5.28,4.93,5.26c-0.14-0.03-0.28-0.03-0.42,0   c-0.2,0.05-0.38,0.17-0.5,0.37l-3.2,5.96c-0.14,0.25-0.14,0.56,0,0.82l3.2,5.96c0.12,0.2,0.3,0.32,0.5,0.37   c0.14,0.03,0.28,0.03,0.42,0c0.12-0.02,0.23-0.06,0.34-0.12l0.95-0.53l-2.79-5.2C3.13,12.34,3.13,11.66,3.44,11.1z"/>
	<path class="st2" d="M7.63,10.99l3.3-6.16L9.52,4.04C9.39,3.97,9.25,3.93,9.11,3.9c-0.16-0.04-0.34-0.04-0.5,0   c-0.24,0.06-0.46,0.21-0.6,0.44l-3.84,7.17c-0.17,0.3-0.17,0.68,0,0.98l3.84,7.17c0.15,0.23,0.37,0.38,0.6,0.44   c0.16,0.04,0.34,0.04,0.5,0c0.14-0.03,0.28-0.07,0.41-0.14l1.41-0.79L7.63,13C7.28,12.39,7.28,11.61,7.63,10.99z"/>
	<path class="st3" d="M22.44,6.4l-7.5-4.19c-0.16-0.09-0.33-0.14-0.51-0.17c-0.2-0.05-0.41-0.05-0.62,0   c-0.29,0.07-0.56,0.25-0.74,0.54L8.36,11.4c-0.21,0.37-0.21,0.83,0,1.21l4.72,8.82c0.18,0.29,0.45,0.47,0.74,0.54   c0.2,0.05,0.41,0.05,0.62,0c0.17-0.03,0.35-0.08,0.51-0.17l7.5-4.19c0.53-0.29,0.85-0.85,0.85-1.45V7.86   C23.29,7.25,22.97,6.7,22.44,6.4z"/>
</g>
</svg>