<?xml version="1.0" encoding="UTF-8"?>
<svg id="Layer_1" data-name="Layer 1" xmlns="http://www.w3.org/2000/svg" viewBox="0 0 900 900">
  <defs>
    <style>
      .cls-1, .cls-2 {
        fill: #3e00a1;
        stroke-width: 0px;
      }

      .cls-2 {
        fill-rule: evenodd;
      }
    </style>
  </defs>
  <g>
    <path class="cls-1" d="M643.86,393.75c0-17.26-13.99-31.25-31.25-31.25h-321.88c-17.26,0-31.25,13.99-31.25,31.25s13.99,31.25,31.25,31.25h321.88c17.26,0,31.25-13.99,31.25-31.25Z"/>
    <path class="cls-1" d="M290.73,487.5c-17.26,0-31.25,13.99-31.25,31.25s13.99,31.25,31.25,31.25h195.49c17.26,0,31.25-13.99,31.25-31.25s-13.99-31.25-31.25-31.25h-195.49Z"/>
    <path class="cls-1" d="M364.17,787.5h-104.51c-34.46,0-62.5-28.04-62.5-62.5V175c0-34.46,28.04-62.5,62.5-62.5h384.2c34.46,0,62.5,28.04,62.5,62.5v192.19c0,17.26,13.99,31.25,31.25,31.25s31.25-13.99,31.25-31.25v-192.19c0-68.92-56.08-125-125-125h-384.2c-68.92,0-125,56.08-125,125v550c0,68.92,56.08,125,125,125h104.51c17.26,0,31.25-13.99,31.25-31.25s-13.99-31.25-31.25-31.25Z"/>
    <path class="cls-1" d="M612.61,237.5h-321.88c-17.26,0-31.25,13.99-31.25,31.25s13.99,31.25,31.25,31.25h321.88c17.26,0,31.25-13.99,31.25-31.25s-13.99-31.25-31.25-31.25Z"/>
  </g>
  <path class="cls-2" d="M832.47,629.57h-18.26v-61.82c0-32.39-13.24-61.84-34.57-83.17h-.07c-21.34-21.33-50.76-34.57-83.11-34.57s-60.73,12.79-81.97,33.47l-1.21,1.1c-21.33,21.33-34.57,50.78-34.57,83.17v61.82h-18.25c-9.64,0-17.53,7.89-17.53,17.53v185.38c0,9.64,7.89,17.52,17.53,17.52h272.01c9.64,0,17.53-7.88,17.53-17.52v-185.38c0-9.64-7.89-17.53-17.53-17.53ZM711.96,742.81v30.51c0,8.53-6.98,15.49-15.49,15.49h-.01c-8.51,0-15.49-6.97-15.49-15.49v-30.51c-7.72-5.06-12.83-13.79-12.83-23.71,0-15.65,12.69-28.32,28.32-28.32s28.32,12.67,28.32,28.32c0,9.92-5.1,18.65-12.82,23.71ZM773.55,629.57h-154.18v-61.82c0-21.19,8.68-40.45,22.67-54.44l.87-.92c13.89-13.43,32.81-21.73,53.55-21.73s40.49,8.67,54.47,22.62l-.04.04c13.99,13.99,22.66,33.25,22.66,54.44v61.82Z"/>
</svg>