<?xml version="1.0" encoding="UTF-8"?>
<svg id="Layer_1" data-name="Layer 1" xmlns="http://www.w3.org/2000/svg" viewBox="0 0 48 48">
  <defs>
    <style>
      .cls-1 {
        fill: #194073;
      }

      .cls-1, .cls-2, .cls-3 {
        stroke-width: 0px;
      }

      .cls-2 {
        fill: #152c53;
      }

      .cls-3 {
        fill: #025291;
      }
    </style>
  </defs>
  <path class="cls-3" d="M4.1,15.8l18.6,10c.8.4,1.8.4,2.6,0l18.6-10c1.6-1,1.6-3.4,0-4.4L25.3,1.4c-.8-.4-1.8-.4-2.6,0L4.1,11.4c-1.7.9-1.7,3.3,0,4.4Z"/>
  <path class="cls-1" d="M43.9,21.8l-3.2-1.7-15.5,8.3c-.8.4-1.8.4-2.6,0l-15.3-8.3-3.2,1.7c-1.6,1-1.6,3.4,0,4.4l18.6,10c.8.4,1.8.4,2.6,0l18.6-10c1.7-1,1.7-3.4,0-4.4Z"/>
  <path class="cls-2" d="M43.9,32.2l-3.2-1.7-15.5,8.3c-.8.4-1.8.4-2.6,0l-15.3-8.3-3.2,1.7c-1.6,1-1.6,3.4,0,4.4l18.6,10c.8.4,1.8.4,2.6,0l18.6-10c1.7-.9,1.7-3.3,0-4.4Z"/>
</svg>