<?xml version="1.0" encoding="UTF-8"?>
<!-- Generator: Adobe Illustrator 24.1.3, SVG Export Plug-In . SVG Version: 6.00 Build 0)  -->
<svg version="1.1" id="Layer_1" xmlns="http://www.w3.org/2000/svg" xmlns:xlink="http://www.w3.org/1999/xlink" x="0px" y="0px" viewBox="0 0 48 48" style="enable-background:new 0 0 48 48;" xml:space="preserve">
<style type="text/css">
	.st0{fill:#282B3A;}
	.st1{fill:#943B79;}
	.st2{fill:#852F65;}
	.st3{fill:#9263AB;}
	.st4{fill:#925091;}
</style>
<g>
	<path class="st0" d="M43.1,11.1L25.9,1.5c-1.2-0.6-2.6-0.6-3.7,0L4.9,11.1c-1.2,0.7-2,2-2,3.3v19.1c0,1.4,0.8,2.7,2,3.3l17.2,9.6   c1.2,0.6,2.6,0.6,3.7,0L43,36.8c1.2-0.7,2-2,2-3.3v-19C45.1,13.1,44.3,11.8,43.1,11.1z"/>
	<path class="st1" d="M8.7,28.3v3.1c0,0.7,0.4,1.3,1,1.7l13.4,7.5c0.3,0.2,0.6,0.2,0.9,0.2V31c-0.2,0-0.5,0-0.7-0.1L8.7,28.3z"/>
	<path class="st2" d="M24.9,40.6l13.4-7.5c0.6-0.3,1-1,1-1.7v-3.1L24.7,31c-0.2,0-0.5,0.1-0.7,0.1v9.8   C24.3,40.9,24.6,40.8,24.9,40.6z"/>
	<path class="st3" d="M23.1,7.4L9.7,14.9c-0.6,0.3-1,1-1,1.7v3.1L23.3,17c0.2,0,0.5-0.1,0.7-0.1V7.1C23.7,7.1,23.4,7.2,23.1,7.4z"/>
	<path class="st4" d="M39.3,19.7v-3.1c0-0.7-0.4-1.3-1-1.7L24.9,7.4c-0.3-0.2-0.6-0.2-0.9-0.2V17c0.2,0,0.5,0,0.7,0.1L39.3,19.7z"/>
	<path class="st1" d="M24.7,28.1l14.6-2.7v-2.9l-14.6-2.7c-0.2,0-0.5-0.1-0.7-0.1v8.4C24.2,28.2,24.5,28.2,24.7,28.1z"/>
	<path class="st4" d="M8.7,22.6v2.9l14.6,2.7c0.2,0,0.5,0.1,0.7,0.1v-8.4c-0.2,0-0.5,0-0.7,0.1L8.7,22.6z"/>
</g>
</svg>