<svg id="Layer_1" data-name="Layer 1" xmlns="http://www.w3.org/2000/svg" viewBox="0 0 299 56"><defs><style>.cls-1{fill:#48729d;}.cls-2{fill:#282b3a;}.cls-3{fill:#fff;}.cls-4{fill:#f37326;}.cls-5{fill:#f15a24;}.cls-6{fill:#f48c29;}.cls-7{fill:#f6a52b;}</style></defs><title>pending</title><path class="cls-1" d="M156,0H299a0,0,0,0,1,0,0V56a0,0,0,0,1,0,0H156a6,6,0,0,1-6-6V6a6,6,0,0,1,6-6Z" transform="translate(449 56) rotate(-180)"/><path class="cls-2" d="M6,0H150a0,0,0,0,1,0,0V56a0,0,0,0,1,0,0H6a6,6,0,0,1-6-6V6A6,6,0,0,1,6,0Z"/><path class="cls-3" d="M75.92,24.34a8.52,8.52,0,0,1,2,5.84,8.71,8.71,0,0,1-2.06,6,6.39,6.39,0,0,1-5,2.26,4.72,4.72,0,0,1-2.61-.77,5,5,0,0,1-1.89-2.34L65.4,38H63V16.18H66.7v8.28a4.81,4.81,0,0,1,4.36-2.35A6.21,6.21,0,0,1,75.92,24.34ZM66.7,29.29v2A3.68,3.68,0,0,0,67.87,34a3.53,3.53,0,0,0,2.56,1A3.24,3.24,0,0,0,73,33.68a5.28,5.28,0,0,0,1.08-3.47A5.25,5.25,0,0,0,73,26.76a3.32,3.32,0,0,0-2.65-1.28,3.54,3.54,0,0,0-2.63,1.05A3.72,3.72,0,0,0,66.7,29.29Z"/><path class="cls-3" d="M92.69,35.16A4.89,4.89,0,0,1,88,38.24c-2.73,0-4.52-1.07-5.39-3.21a6.79,6.79,0,0,1-.48-2.7V22.5h3.75V32a3.1,3.1,0,0,0,.73,2.27,2.39,2.39,0,0,0,1.79.75,4.68,4.68,0,0,0,1.79-.3,3.35,3.35,0,0,0,1.27-.91,5.59,5.59,0,0,0,1.24-3.65V22.5h3.75V38H92.69Z"/><path class="cls-3" d="M102.21,17.54a2.11,2.11,0,0,1,.61-1.6,2.35,2.35,0,0,1,1.71-.59,2.39,2.39,0,0,1,1.7.59,2.12,2.12,0,0,1,.62,1.6,2.12,2.12,0,0,1-.62,1.61,2.39,2.39,0,0,1-1.7.58,2.35,2.35,0,0,1-1.71-.58A2.12,2.12,0,0,1,102.21,17.54Zm.45,5h3.74V38h-3.74Z"/><path class="cls-3" d="M112.75,16.18h3.74V38h-3.74Z"/><path class="cls-3" d="M132.46,35.57a4.63,4.63,0,0,1-4.38,2.83,6.33,6.33,0,0,1-5-2.26,8.67,8.67,0,0,1-2.07-6,8.64,8.64,0,0,1,2-5.88,6.18,6.18,0,0,1,4.83-2.19,4.81,4.81,0,0,1,4.34,2.32V16.18H136V38H132.9Zm-3.91-10.09a3.33,3.33,0,0,0-2.65,1.28,5.25,5.25,0,0,0-1.06,3.45,5.28,5.28,0,0,0,1.08,3.47,3.39,3.39,0,0,0,5.17.24,3.78,3.78,0,0,0,1.11-2.79v-2a3.87,3.87,0,0,0-1.11-2.7A3.44,3.44,0,0,0,128.55,25.48Z"/><path class="cls-3" d="M167.38,24.62a4.8,4.8,0,0,1,4.44-2.51,6.46,6.46,0,0,1,4.89,2.16,8.36,8.36,0,0,1,2.16,6,8.31,8.31,0,0,1-2.19,6,6.43,6.43,0,0,1-4.86,2.16,4.85,4.85,0,0,1-4.12-1.69v8.76H164V22.53H167ZM171.16,35a3.56,3.56,0,0,0,1.38-.29,3.63,3.63,0,0,0,1.28-.88,5,5,0,0,0,1.27-3.57A5.19,5.19,0,0,0,174,26.75a3.39,3.39,0,0,0-2.67-1.27,3.7,3.7,0,0,0-2.57.9A3.5,3.5,0,0,0,167.7,29v2.76a3,3,0,0,0,1.05,2.41A3.54,3.54,0,0,0,171.16,35Z"/><path class="cls-3" d="M195.26,26.72a8.43,8.43,0,0,1,.4,2.44,13.43,13.43,0,0,1-.13,2h-10a5.38,5.38,0,0,0,.92,3.05,3,3,0,0,0,2.6,1.17,2.49,2.49,0,0,0,2.76-2h3.78A5.57,5.57,0,0,1,193.5,37a7,7,0,0,1-4.41,1.4A6.66,6.66,0,0,1,184,36.17a8.41,8.41,0,0,1-2.13-5.93,8.34,8.34,0,0,1,2.13-6,6.72,6.72,0,0,1,5.11-2.16,6,6,0,0,1,5,2.26A7,7,0,0,1,195.26,26.72Zm-6.14-1.62a3.07,3.07,0,0,0-2.47,1,4.56,4.56,0,0,0-1.05,2.65h6.57q0-2.51-1.59-3.36A3,3,0,0,0,189.12,25.1Z"/><path class="cls-3" d="M203.81,25.19A5.6,5.6,0,0,1,213,24a7.85,7.85,0,0,1,1.45,5v9H210.7v-9a3.64,3.64,0,0,0-.82-2.59,3.05,3.05,0,0,0-2.32-.87A3.17,3.17,0,0,0,205,26.81a6.64,6.64,0,0,0-1.12,4V38h-3.75V22.53h3.27Z"/><path class="cls-3" d="M230,35.57a4.65,4.65,0,0,1-4.38,2.83,6.33,6.33,0,0,1-5-2.26,8.67,8.67,0,0,1-2.07-6,8.64,8.64,0,0,1,2-5.88,6.17,6.17,0,0,1,4.82-2.19,4.81,4.81,0,0,1,4.35,2.32V16.18h3.78V38h-3.08Zm-3.91-10.09a3.32,3.32,0,0,0-2.65,1.28,5.25,5.25,0,0,0-1.06,3.45,5.28,5.28,0,0,0,1.08,3.47,3.39,3.39,0,0,0,5.17.24,3.78,3.78,0,0,0,1.11-2.79v-2a3.87,3.87,0,0,0-1.11-2.7A3.44,3.44,0,0,0,226.06,25.48Z"/><path class="cls-3" d="M239.27,17.54a2.14,2.14,0,0,1,.6-1.6,2.76,2.76,0,0,1,3.41,0,2.12,2.12,0,0,1,.62,1.6,2.12,2.12,0,0,1-.62,1.61,2.8,2.8,0,0,1-3.41,0A2.15,2.15,0,0,1,239.27,17.54Zm.44,5h3.75V38h-3.75Z"/><path class="cls-3" d="M253.48,25.19a5.6,5.6,0,0,1,9.19-1.2,7.85,7.85,0,0,1,1.45,5v9h-3.75v-9a3.64,3.64,0,0,0-.82-2.59,3.05,3.05,0,0,0-2.32-.87,3.17,3.17,0,0,0-2.56,1.33,6.64,6.64,0,0,0-1.12,4V38H249.8V22.53h3.27Z"/><path class="cls-3" d="M270.91,31.64a5,5,0,0,1-1.87-4,4.92,4.92,0,0,1,2-4.06,6.88,6.88,0,0,1,4.37-1.5,8.27,8.27,0,0,1,4.11.93A4.14,4.14,0,0,1,281,20.12,4.77,4.77,0,0,1,284.17,19L284,22.59c-1.82,0-2.76.6-2.82,1.81a4.74,4.74,0,0,1,1.17,3,5.48,5.48,0,0,1-.54,2.56,5.08,5.08,0,0,1-1.46,1.73,7.2,7.2,0,0,1-4.63,1.52,8.1,8.1,0,0,1-2.82-.47,1.52,1.52,0,0,0-1.27,1.52c0,.95.8,1.43,2.41,1.43h5.17c3.51,0,5.27,1.22,5.27,3.68a5.28,5.28,0,0,1-.62,2.43,6.58,6.58,0,0,1-1.79,2.11,10.35,10.35,0,0,1-6.54,2,11.12,11.12,0,0,1-6.19-1.56,4.33,4.33,0,0,1-2.22-3.65,3,3,0,0,1,.87-2.27,4.14,4.14,0,0,1,2.3-1.06,3.29,3.29,0,0,1-1.87-2.82,2.61,2.61,0,0,1,.7-1.86A3.81,3.81,0,0,1,270.91,31.64Zm2.85,6.66c-2,.09-3,.84-3,2.25A2,2,0,0,0,272,42.28a6.32,6.32,0,0,0,3,.66,9.85,9.85,0,0,0,2.68-.29,5.41,5.41,0,0,0,1.64-.76,2.75,2.75,0,0,0,1.43-2.29,1.22,1.22,0,0,0-.4-.93,1.63,1.63,0,0,0-1.16-.37Zm4.86-10.68a3.06,3.06,0,0,0-.71-2.09,2.77,2.77,0,0,0-2.18-.81,2.72,2.72,0,0,0-3,2.9,3,3,0,0,0,.76,2.11,2.88,2.88,0,0,0,2.22.83,2.75,2.75,0,0,0,2.18-.83A3.13,3.13,0,0,0,278.62,27.62Z"/><path class="cls-4" d="M17.46,16.28l-2.34,1.31A2.2,2.2,0,0,0,14,19.5v17a2.2,2.2,0,0,0,1.12,1.91l2.34,1.31L29.18,28Z"/><path class="cls-5" d="M32.57,9a2.2,2.2,0,0,0-2.14,0l-10,5.59L31.5,25.68,42.56,14.62Z"/><path class="cls-6" d="M47.88,17.59l-2.34-1.31L33.82,28,45.54,39.72l2.34-1.31A2.2,2.2,0,0,0,49,36.5v-17A2.2,2.2,0,0,0,47.88,17.59Z"/><path class="cls-7" d="M31.5,30.32,20.44,41.38l10,5.59a2.2,2.2,0,0,0,2.14,0l10-5.59Z"/></svg>