<svg id="Layer_1" data-name="Layer 1" xmlns="http://www.w3.org/2000/svg" viewBox="0 0 294 56"><defs><style>.cls-1{fill:#499e8d;}.cls-2{fill:#282b3a;}.cls-3{fill:#fff;}.cls-4{fill:#f37326;}.cls-5{fill:#f15a24;}.cls-6{fill:#f48c29;}.cls-7{fill:#f6a52b;}</style></defs><title>success</title><path class="cls-1" d="M156,0H294a0,0,0,0,1,0,0V56a0,0,0,0,1,0,0H156a6,6,0,0,1-6-6V6A6,6,0,0,1,156,0Z" transform="translate(444 56) rotate(-180)"/><path class="cls-2" d="M6,0H150a0,0,0,0,1,0,0V56a0,0,0,0,1,0,0H6a6,6,0,0,1-6-6V6A6,6,0,0,1,6,0Z"/><path class="cls-3" d="M75.92,24.34a8.52,8.52,0,0,1,2,5.84,8.71,8.71,0,0,1-2.06,6,6.39,6.39,0,0,1-5,2.26,4.72,4.72,0,0,1-2.61-.77,5,5,0,0,1-1.89-2.34L65.4,38H63V16.18H66.7v8.28a4.81,4.81,0,0,1,4.36-2.34A6.2,6.2,0,0,1,75.92,24.34ZM66.7,29.29v2A3.68,3.68,0,0,0,67.87,34a3.53,3.53,0,0,0,2.56,1A3.24,3.24,0,0,0,73,33.68a5.28,5.28,0,0,0,1.08-3.47A5.25,5.25,0,0,0,73,26.76a3.32,3.32,0,0,0-2.65-1.28,3.54,3.54,0,0,0-2.63,1.05A3.7,3.7,0,0,0,66.7,29.29Z"/><path class="cls-3" d="M92.69,35.16A4.89,4.89,0,0,1,88,38.24c-2.73,0-4.52-1.07-5.39-3.21a6.79,6.79,0,0,1-.48-2.7V22.5h3.75V32a3.1,3.1,0,0,0,.73,2.27,2.39,2.39,0,0,0,1.79.75,4.68,4.68,0,0,0,1.79-.3,3.35,3.35,0,0,0,1.27-.91,5.59,5.59,0,0,0,1.24-3.65V22.5h3.75V38H92.69Z"/><path class="cls-3" d="M102.21,17.54a2.11,2.11,0,0,1,.61-1.6,2.35,2.35,0,0,1,1.71-.59,2.39,2.39,0,0,1,1.7.59,2.12,2.12,0,0,1,.62,1.6,2.12,2.12,0,0,1-.62,1.61,2.39,2.39,0,0,1-1.7.58,2.35,2.35,0,0,1-1.71-.58A2.12,2.12,0,0,1,102.21,17.54Zm.45,5h3.74V38h-3.74Z"/><path class="cls-3" d="M112.75,16.18h3.74V38h-3.74Z"/><path class="cls-3" d="M132.46,35.57a4.63,4.63,0,0,1-4.38,2.83,6.33,6.33,0,0,1-5-2.26,8.67,8.67,0,0,1-2.07-6,8.64,8.64,0,0,1,2-5.88,6.17,6.17,0,0,1,4.83-2.18,4.8,4.8,0,0,1,4.34,2.31V16.18H136V38H132.9Zm-3.91-10.09a3.33,3.33,0,0,0-2.65,1.28,5.25,5.25,0,0,0-1.06,3.45,5.28,5.28,0,0,0,1.08,3.47,3.39,3.39,0,0,0,5.17.24,3.78,3.78,0,0,0,1.11-2.79v-2a3.87,3.87,0,0,0-1.11-2.7A3.44,3.44,0,0,0,128.55,25.48Z"/><path class="cls-3" d="M166.05,33.25c0,1.46,1.11,2.2,3.2,2.2a3.49,3.49,0,0,0,2-.53A1.48,1.48,0,0,0,172,33.7a1.28,1.28,0,0,0-.47-1.08,4.83,4.83,0,0,0-1.49-.7l-3.37-1.2q-3.74-1.3-3.74-4.26a3.65,3.65,0,0,1,1.76-3.16,8.34,8.34,0,0,1,4.73-1.18,7.07,7.07,0,0,1,4.57,1.3,4.19,4.19,0,0,1,1.66,3.27h-3.52a1.53,1.53,0,0,0-.73-1.21,3.38,3.38,0,0,0-1.9-.44,3.21,3.21,0,0,0-1.92.49,1.39,1.39,0,0,0-.69,1.12c0,.74.63,1.29,1.88,1.65l3.65,1.37a7.11,7.11,0,0,1,2.77,1.54,3.2,3.2,0,0,1,1,2.43,4.08,4.08,0,0,1-1.81,3.3,7.86,7.86,0,0,1-5,1.46,8.29,8.29,0,0,1-4.95-1.35,4.48,4.48,0,0,1-1.9-3.8Z"/><path class="cls-3" d="M190.93,35.16a4.89,4.89,0,0,1-4.7,3.08q-4.09,0-5.39-3.21a6.79,6.79,0,0,1-.48-2.7V22.5h3.75V32a3.1,3.1,0,0,0,.73,2.27,2.39,2.39,0,0,0,1.79.75,4.68,4.68,0,0,0,1.79-.3,3.35,3.35,0,0,0,1.27-.91,5.65,5.65,0,0,0,1.24-3.65V22.5h3.74V38h-3.74Z"/><path class="cls-3" d="M206.45,22.12a6.62,6.62,0,0,1,2.62.49,6.12,6.12,0,0,1,2,1.28,6.21,6.21,0,0,1,1.87,3.84l-3.77.1a3.48,3.48,0,0,0-.94-1.68,2.18,2.18,0,0,0-1.57-.67,4,4,0,0,0-1.53.27,3,3,0,0,0-1.11.84,5.7,5.7,0,0,0-1.07,3.68,5.3,5.3,0,0,0,1,3.54A3.14,3.14,0,0,0,206.37,35a2.79,2.79,0,0,0,2.09-.68,2.58,2.58,0,0,0,.66-1.86h3.77a5.73,5.73,0,0,1-1.68,4.22,6.45,6.45,0,0,1-4.79,1.72,6.66,6.66,0,0,1-5.11-2.23,8.41,8.41,0,0,1-2.19-5.93,8.23,8.23,0,0,1,2.19-6A6.85,6.85,0,0,1,206.45,22.12Z"/><path class="cls-3" d="M223.27,22.12a6.62,6.62,0,0,1,2.62.49,6.12,6.12,0,0,1,2,1.28,6.21,6.21,0,0,1,1.87,3.84l-3.77.1a3.4,3.4,0,0,0-.94-1.68,2.18,2.18,0,0,0-1.57-.67,3.86,3.86,0,0,0-1.52.27,2.93,2.93,0,0,0-1.12.84,5.76,5.76,0,0,0-1.07,3.68,5.3,5.3,0,0,0,1,3.54A3.14,3.14,0,0,0,223.19,35a2.83,2.83,0,0,0,2.1-.68,2.62,2.62,0,0,0,.65-1.86h3.77A5.73,5.73,0,0,1,228,36.68a6.45,6.45,0,0,1-4.79,1.72,6.66,6.66,0,0,1-5.11-2.23,8.41,8.41,0,0,1-2.19-5.93,8.23,8.23,0,0,1,2.19-6A6.85,6.85,0,0,1,223.27,22.12Z"/><path class="cls-3" d="M246.17,26.72a8.79,8.79,0,0,1,.4,2.44,14.92,14.92,0,0,1-.13,2h-10a5.46,5.46,0,0,0,.92,3.05A3,3,0,0,0,240,35.38a2.48,2.48,0,0,0,2.76-2h3.77A5.54,5.54,0,0,1,244.41,37,7,7,0,0,1,240,38.4a6.66,6.66,0,0,1-5.11-2.23,8.41,8.41,0,0,1-2.13-5.93,8.34,8.34,0,0,1,2.13-6A6.69,6.69,0,0,1,240,22.12a6,6,0,0,1,5,2.25A7.14,7.14,0,0,1,246.17,26.72ZM240,25.1a3.1,3.1,0,0,0-2.48,1,4.61,4.61,0,0,0-1,2.65h6.57q0-2.51-1.59-3.36A3.12,3.12,0,0,0,240,25.1Z"/><path class="cls-3" d="M253.14,33.25c0,1.46,1.11,2.2,3.2,2.2a3.49,3.49,0,0,0,2-.53,1.48,1.48,0,0,0,.77-1.22,1.31,1.31,0,0,0-.47-1.08,4.83,4.83,0,0,0-1.49-.7l-3.37-1.2c-2.5-.87-3.74-2.29-3.74-4.26a3.65,3.65,0,0,1,1.76-3.16,8.34,8.34,0,0,1,4.73-1.18,7.09,7.09,0,0,1,4.57,1.3,4.22,4.22,0,0,1,1.66,3.27h-3.52a1.56,1.56,0,0,0-.73-1.21,3.38,3.38,0,0,0-1.9-.44,3.21,3.21,0,0,0-1.92.49,1.39,1.39,0,0,0-.69,1.12c0,.74.63,1.29,1.88,1.65l3.65,1.37a7.11,7.11,0,0,1,2.77,1.54,3.2,3.2,0,0,1,1,2.43,4.08,4.08,0,0,1-1.81,3.3,7.86,7.86,0,0,1-4.95,1.46,8.29,8.29,0,0,1-4.95-1.35,4.48,4.48,0,0,1-1.9-3.8Z"/><path class="cls-3" d="M269.86,33.25c0,1.46,1.11,2.2,3.21,2.2a3.47,3.47,0,0,0,2-.53,1.47,1.47,0,0,0,.78-1.22,1.29,1.29,0,0,0-.48-1.08,4.61,4.61,0,0,0-1.49-.7l-3.36-1.2q-3.75-1.3-3.75-4.26a3.67,3.67,0,0,1,1.76-3.16,8.37,8.37,0,0,1,4.73-1.18,7.07,7.07,0,0,1,4.57,1.3,4.2,4.2,0,0,1,1.67,3.27H276a1.59,1.59,0,0,0-.73-1.21,3.42,3.42,0,0,0-1.91-.44,3.25,3.25,0,0,0-1.92.49,1.4,1.4,0,0,0-.68,1.12c0,.74.62,1.29,1.87,1.65l3.65,1.37A7.16,7.16,0,0,1,279,31.21a3.24,3.24,0,0,1,1,2.43,4.1,4.1,0,0,1-1.81,3.3,7.86,7.86,0,0,1-4.95,1.46,8.3,8.3,0,0,1-5-1.35,4.51,4.51,0,0,1-1.9-3.8Z"/><path class="cls-4" d="M17.46,16.28l-2.34,1.31A2.2,2.2,0,0,0,14,19.5v17a2.2,2.2,0,0,0,1.12,1.91l2.34,1.31L29.18,28Z"/><path class="cls-5" d="M32.57,9a2.2,2.2,0,0,0-2.14,0l-10,5.59L31.5,25.68,42.56,14.62Z"/><path class="cls-6" d="M47.88,17.59l-2.34-1.31L33.82,28,45.54,39.72l2.34-1.31A2.2,2.2,0,0,0,49,36.5v-17A2.2,2.2,0,0,0,47.88,17.59Z"/><path class="cls-7" d="M31.5,30.32,20.44,41.38l10,5.59a2.2,2.2,0,0,0,2.14,0l10-5.59Z"/></svg>