<?xml version="1.0" encoding="utf-8"?>
<!-- Generator: Adobe Illustrator 22.1.0, SVG Export Plug-In . SVG Version: 6.00 Build 0)  -->
<svg version="1.1" id="Layer_1" xmlns="http://www.w3.org/2000/svg" xmlns:xlink="http://www.w3.org/1999/xlink" x="0px" y="0px"
	 viewBox="0 0 232 54" style="enable-background:new 0 0 232 54;" xml:space="preserve">
<style type="text/css">
	.st0{fill:#282B3A;}
	.st1{fill:#5AA1BA;}
	.st2{fill:#5C7FB7;}
</style>
<g>
	<g>
		<path class="st0" d="M65.2,44c-3.4,0-5.8-0.9-7.3-2.7c-1.5-1.8-2.2-4.5-2.2-8V21.1c0-1.7,0.2-3.2,0.5-4.5c0.3-1.3,0.9-2.4,1.6-3.3
			c0.7-0.9,1.7-1.6,2.9-2.1c1.2-0.5,2.7-0.7,4.4-0.7c3.4,0,5.8,0.9,7.2,2.7c1.5,1.8,2.2,4.5,2.2,7.9v12.1c0,1.7-0.2,3.2-0.5,4.5
			c-0.3,1.3-0.9,2.4-1.6,3.4c-0.7,1-1.7,1.7-2.9,2.2S66.9,44,65.2,44z M63.7,39.3c0.4,0.2,0.9,0.3,1.5,0.3c0.6,0,1.1-0.1,1.5-0.3
			c0.4-0.2,0.7-0.4,1-0.7c0.2-0.3,0.4-0.6,0.6-1.1c0.1-0.4,0.2-0.9,0.3-1.3c0-0.4,0.1-1,0.1-1.6V19.7c0-0.8,0-1.4-0.1-2
			c-0.1-0.5-0.2-1-0.5-1.5c-0.2-0.5-0.6-0.8-1-1c-0.5-0.2-1-0.3-1.8-0.3c-0.7,0-1.3,0.1-1.8,0.3c-0.5,0.2-0.8,0.6-1,1
			c-0.2,0.5-0.4,1-0.5,1.5c-0.1,0.5-0.1,1.2-0.1,2v14.9c0,0.6,0,1.2,0.1,1.6c0,0.4,0.1,0.9,0.3,1.3c0.1,0.4,0.3,0.8,0.6,1.1
			S63.3,39.1,63.7,39.3z"/>
		<path class="st0" d="M85.2,43.9c-1.1,0-2-0.2-2.7-0.5c-0.7-0.3-1.3-0.8-1.7-1.5c-0.4-0.6-0.7-1.4-0.9-2.1
			c-0.2-0.8-0.3-1.7-0.3-2.8V23.8h-2.3v-3.7h2.3v-6.9h5.6v6.9h3.6v3.7h-3.6v13.5c0,0.8,0.2,1.3,0.5,1.6s0.9,0.5,1.6,0.5
			c0.5,0,1.1,0,1.7-0.1v4.2C87.4,43.8,86.1,43.9,85.2,43.9z"/>
		<path class="st0" d="M98.6,43.9c-1.1,0-2-0.2-2.7-0.5c-0.7-0.3-1.3-0.8-1.7-1.5c-0.4-0.6-0.7-1.4-0.9-2.1C93.1,38.9,93,38,93,37
			V23.8h-2.3v-3.7H93v-6.9h5.6v6.9h3.6v3.7h-3.6v13.5c0,0.8,0.2,1.3,0.5,1.6s0.9,0.5,1.6,0.5c0.5,0,1.1,0,1.7-0.1v4.2
			C100.8,43.8,99.5,43.9,98.6,43.9z"/>
		<path class="st0" d="M112.6,43.9c-2.7,0-4.6-0.7-5.8-2.2c-1.2-1.5-1.8-3.7-1.8-6.5v-6.6c0-2.9,0.6-5.1,1.8-6.5s3.1-2.2,5.7-2.2
			c1.4,0,2.6,0.2,3.5,0.6c1,0.4,1.7,1,2.2,1.9c0.5,0.8,0.9,1.8,1.1,2.9c0.2,1.1,0.3,2.4,0.3,3.9v3.1h-9.2v3.5c0,0.5,0,0.9,0,1.1
			c0,0.3,0,0.6,0.1,1s0.1,0.7,0.2,0.9c0.1,0.2,0.2,0.4,0.3,0.6c0.1,0.2,0.3,0.4,0.6,0.5c0.2,0.1,0.5,0.1,0.8,0.1
			c0.7,0,1.3-0.3,1.5-0.8c0.3-0.5,0.4-1.3,0.4-2.3v-1.3h5.2v0.9c0,2.4-0.6,4.3-1.8,5.6S115,43.9,112.6,43.9z M110.6,29.4h4v-2.2
			c0-1.2-0.1-2-0.4-2.5c-0.3-0.5-0.8-0.8-1.6-0.8c-0.8,0-1.3,0.3-1.6,0.9c-0.3,0.6-0.4,1.6-0.4,3.2V29.4z"/>
		<path class="st0" d="M123.7,43.6V20.2h5.5v3.6c0.8-1.4,1.6-2.4,2.4-3c0.8-0.6,1.6-0.9,2.6-0.9c0.3,0,0.6,0,0.8,0.1v5.5
			c-0.6-0.2-1.3-0.4-1.9-0.4c-0.8,0-1.5,0.2-2.1,0.6c-0.6,0.4-1.2,1-1.8,1.8v16H123.7z"/>
		<path class="st0" d="M146.2,44c-5.8,0-8.8-3.3-9.1-10l5.2-1.1c0.1,4.3,1.4,6.5,3.7,6.5c0.9,0,1.6-0.3,2-0.8
			c0.4-0.6,0.7-1.3,0.7-2.2c0-0.9-0.2-1.7-0.5-2.5c-0.3-0.8-0.7-1.4-1.1-1.9c-0.4-0.5-1.1-1.1-1.9-1.8l-4.3-3.7
			c-1.3-1.1-2.2-2.3-2.8-3.4c-0.6-1.2-0.9-2.7-0.9-4.5c0-2.5,0.7-4.5,2.2-5.9c1.5-1.4,3.5-2.1,6.2-2.2c1.2,0,2.3,0.1,3.2,0.4
			c0.9,0.3,1.7,0.7,2.3,1.2c0.6,0.5,1.1,1.2,1.5,1.9c0.4,0.8,0.7,1.6,0.9,2.4c0.2,0.8,0.3,1.8,0.4,2.8l-5.1,1c0-0.7-0.1-1.2-0.1-1.7
			c-0.1-0.5-0.2-1-0.3-1.5c-0.1-0.5-0.3-0.9-0.6-1.2c-0.2-0.3-0.5-0.6-0.9-0.7c-0.4-0.2-0.8-0.3-1.4-0.2c-0.9,0.1-1.6,0.3-2,0.9
			c-0.5,0.5-0.7,1.2-0.7,2.1c0,1.1,0.2,1.9,0.6,2.6c0.4,0.7,1.1,1.4,1.9,2.2l4.3,3.7c0.7,0.6,1.3,1.3,1.9,1.9c0.5,0.6,1,1.3,1.5,2.1
			c0.5,0.8,0.8,1.6,1.1,2.6c0.3,0.9,0.4,1.9,0.4,3c0,2.4-0.8,4.3-2.3,5.8C150.6,43.2,148.7,44,146.2,44z"/>
		<path class="st0" d="M164.6,43.9c-2.6,0-4.5-0.7-5.7-2.2c-1.2-1.5-1.7-3.6-1.7-6.5v-6.8c0-2.8,0.6-5,1.7-6.4
			c1.2-1.5,3.1-2.2,5.7-2.2c2.5,0,4.3,0.6,5.4,1.8c1.1,1.2,1.7,3,1.7,5.5v1.9h-5.2v-2c0-1.2-0.1-2-0.4-2.5c-0.3-0.5-0.8-0.7-1.5-0.7
			c-0.8,0-1.3,0.3-1.6,0.8c-0.3,0.6-0.4,1.6-0.4,3.1v8.5c0,1.5,0.2,2.5,0.4,3c0.3,0.5,0.8,0.8,1.5,0.8c0.7,0,1.2-0.3,1.5-0.8
			c0.3-0.5,0.4-1.3,0.4-2.3v-2.5h5.2v2.2c0,2.4-0.6,4.2-1.7,5.5C168.8,43.3,167,43.9,164.6,43.9z"/>
		<path class="st0" d="M175.4,43.6V20.2h5.5v3.6c0.8-1.4,1.6-2.4,2.4-3c0.8-0.6,1.6-0.9,2.6-0.9c0.3,0,0.6,0,0.8,0.1v5.5
			c-0.6-0.2-1.3-0.4-1.9-0.4c-0.8,0-1.5,0.2-2.1,0.6c-0.6,0.4-1.2,1-1.8,1.8v16H175.4z"/>
		<path class="st0" d="M189.5,16.5v-4.7h5.6v4.7H189.5z M189.5,43.6V20.2h5.5v23.4H189.5z"/>
		<path class="st0" d="M199.4,51.3V20.2h5.5V22c1.5-1.4,3-2.2,4.7-2.2c0.8,0,1.6,0.2,2.2,0.6c0.6,0.4,1.1,0.8,1.5,1.4
			c0.4,0.5,0.7,1.2,0.9,1.9c0.2,0.7,0.4,1.4,0.5,2.1c0.1,0.6,0.1,1.3,0.1,1.9v7.7c0,1.2-0.1,2.3-0.3,3.3c-0.2,1-0.5,1.9-0.9,2.7
			c-0.4,0.8-1,1.4-1.7,1.9c-0.7,0.5-1.6,0.7-2.6,0.7c-1.4,0-2.9-0.7-4.4-2.1v9.4H199.4z M207.4,40c0.4,0,0.8-0.1,1-0.3
			c0.3-0.2,0.5-0.6,0.6-1c0.1-0.4,0.2-0.9,0.3-1.4c0-0.5,0.1-1,0.1-1.7v-8.1c0-0.5,0-1-0.1-1.5c-0.1-0.4-0.2-0.8-0.3-1.2
			c-0.1-0.4-0.4-0.7-0.7-0.9c-0.3-0.2-0.6-0.3-1-0.3c-0.7,0-1.5,0.3-2.3,0.9v14.7C205.7,39.7,206.6,40,207.4,40z"/>
		<path class="st0" d="M225.2,43.9c-1.1,0-2-0.2-2.7-0.5c-0.7-0.3-1.3-0.8-1.7-1.5c-0.4-0.6-0.7-1.4-0.9-2.1s-0.3-1.7-0.3-2.8V23.8
			h-2.3v-3.7h2.3v-6.9h5.6v6.9h3.6v3.7h-3.6v13.5c0,0.8,0.2,1.3,0.5,1.6s0.9,0.5,1.6,0.5c0.5,0,1.1,0,1.7-0.1v4.2
			C227.4,43.8,226.2,43.9,225.2,43.9z"/>
	</g>
	<path class="st0" d="M43.4,13.4L25.2,3.2c-1.2-0.7-2.7-0.7-3.9,0L3.1,13.4C1.8,14.1,1,15.5,1,16.9v20.1c0,1.5,0.8,2.8,2.1,3.5
		l18.2,10.2c1.2,0.7,2.7,0.7,3.9,0l18.2-10.2c1.3-0.7,2.1-2.1,2.1-3.5V16.9C45.5,15.5,44.7,14.1,43.4,13.4z"/>
	<path class="st1" d="M38.6,17.1l-13.3-6.8c-1.1-0.9-3-0.9-4.1,0L7.9,17.1c-0.8,0.6-1,1.4-0.7,2.2c0.1,0.3,0.4,0.7,0.7,0.9L21.2,27
		c1.1,0.9,3,0.9,4.1,0l13.3-6.8c0.4-0.3,0.6-0.6,0.7-0.9C39.6,18.5,39.4,17.7,38.6,17.1z"/>
	<path class="st2" d="M39.4,27L39.4,27c0-0.2,0-0.4-0.1-0.6c-0.1-0.3-0.4-0.7-0.7-0.9l-1.8-0.9l-9.9,5.1c-1,0.7-2.3,1.1-3.6,1.1
		c-1.3,0-2.6-0.4-3.6-1.1l-9.9-5.1l-1.8,0.9c-0.4,0.3-0.6,0.6-0.7,0.9c-0.1,0.2-0.1,0.4-0.1,0.6h0v8.1c0,0.8,0.2,1.3,0.9,1.8
		l13.3,6.8c1.1,0.9,3,0.9,4.1,0l13.3-6.8c0.7-0.5,0.9-1.2,0.8-1.8h0V27z"/>
</g>
</svg>
